<svg width="15" height="15" fill="none" xmlns="http://www.w3.org/2000/svg"><path fill-rule="evenodd" clip-rule="evenodd" d="M6.536.182h.78c2.324 0 2.6.008 3.517.05.848.039 1.309.18 1.615.3a2.69 2.69 0 011 .65 2.7 2.7 0 01.652 1.001c.119.307.26.767.3 1.616.041.917.05 1.193.05 3.515s-.009 2.598-.05 3.515c-.04.848-.181 1.309-.3 1.615a2.69 2.69 0 01-.652 1 2.69 2.69 0 01-1 .65c-.306.12-.767.262-1.615.3-.917.042-1.193.051-3.516.051-2.324 0-2.6-.009-3.517-.05-.848-.04-1.309-.181-1.615-.3a2.694 2.694 0 01-1.001-.651 2.696 2.696 0 01-.651-1c-.12-.307-.261-.767-.3-1.616-.042-.917-.05-1.193-.05-3.516 0-2.324.008-2.598.05-3.516.039-.848.18-1.308.3-1.615.157-.406.346-.696.65-1A2.7 2.7 0 012.186.528c.306-.12.767-.261 1.615-.3.803-.036 1.114-.047 2.736-.05v.003zm5.426 1.445a1.044 1.044 0 100 2.089 1.044 1.044 0 000-2.09v.001zM2.848 7.316a4.469 4.469 0 118.938 0 4.469 4.469 0 01-8.938 0z" fill="#fff"/></svg>