<svg width="23" height="17" viewBox="0 0 23 17" fill="none" xmlns="http://www.w3.org/2000/svg">
<path d="M19.8333 4.33335H16.7083V0.166687H2.12499C0.979156 0.166687 0.0416565 1.10419 0.0416565 2.25002V13.7084H2.12499C2.12499 15.4375 3.52082 16.8334 5.24999 16.8334C6.97916 16.8334 8.37499 15.4375 8.37499 13.7084H14.625C14.625 15.4375 16.0208 16.8334 17.75 16.8334C19.4792 16.8334 20.875 15.4375 20.875 13.7084H22.9583V8.50002L19.8333 4.33335ZM19.3125 5.89585L21.3542 8.50002H16.7083V5.89585H19.3125ZM5.24999 14.75C4.67707 14.75 4.20832 14.2813 4.20832 13.7084C4.20832 13.1354 4.67707 12.6667 5.24999 12.6667C5.82291 12.6667 6.29166 13.1354 6.29166 13.7084C6.29166 14.2813 5.82291 14.75 5.24999 14.75ZM7.56249 11.625C6.98957 10.9896 6.17707 10.5834 5.24999 10.5834C4.32291 10.5834 3.51041 10.9896 2.93749 11.625H2.12499V2.25002H14.625V11.625H7.56249ZM17.75 14.75C17.1771 14.75 16.7083 14.2813 16.7083 13.7084C16.7083 13.1354 17.1771 12.6667 17.75 12.6667C18.3229 12.6667 18.7917 13.1354 18.7917 13.7084C18.7917 14.2813 18.3229 14.75 17.75 14.75Z" fill="black"/>
</svg>
