<svg width="15" height="15" viewBox="0 0 15 15" fill="none" xmlns="http://www.w3.org/2000/svg">
<path fill-rule="evenodd" clip-rule="evenodd" d="M6.536 0.182107C6.68757 0.18187 6.85063 0.181943 7.0266 0.182022L7.31662 0.182107C9.64002 0.182107 9.91539 0.190446 10.8329 0.232143C11.6813 0.270938 12.1418 0.412706 12.4485 0.531812C12.8546 0.689533 13.1441 0.878073 13.4485 1.18264C13.7531 1.4872 13.9416 1.77726 14.0997 2.18335C14.2188 2.48973 14.3608 2.9502 14.3994 3.79863C14.4411 4.71595 14.4501 4.99151 14.4501 7.31381C14.4501 9.63612 14.4411 9.91168 14.3994 10.829C14.3606 11.6774 14.2188 12.1379 14.0997 12.4443C13.942 12.8504 13.7531 13.1395 13.4485 13.4439C13.144 13.7485 12.8548 13.937 12.4485 14.0947C12.1422 14.2144 11.6813 14.3558 10.8329 14.3946C9.91558 14.4363 9.64002 14.4453 7.31662 14.4453C4.99305 14.4453 4.71767 14.4363 3.80035 14.3946C2.95192 14.3554 2.49145 14.2136 2.18453 14.0945C1.77844 13.9368 1.48838 13.7483 1.18382 13.4437C0.879251 13.1392 0.690711 12.8498 0.532628 12.4435C0.413521 12.1372 0.271572 11.6767 0.232958 10.8283C0.191262 9.91095 0.182922 9.63539 0.182922 7.31164C0.182922 4.98788 0.191262 4.71377 0.232958 3.79645C0.271754 2.94802 0.413521 2.48755 0.532628 2.18081C0.690349 1.77473 0.879251 1.48466 1.18382 1.1801C1.48838 0.875535 1.77844 0.686995 2.18453 0.528912C2.49127 0.409261 2.95192 0.267857 3.80035 0.22888C4.6031 0.192622 4.91419 0.181745 6.536 0.179932V0.182107ZM11.9616 1.62696C11.3851 1.62696 10.9174 2.09414 10.9174 2.67082C10.9174 3.24732 11.3851 3.71504 11.9616 3.71504C12.5381 3.71504 13.0058 3.24732 13.0058 2.67082C13.0058 2.09432 12.5381 1.6266 11.9616 1.6266V1.62696ZM2.84786 7.31584C2.84786 4.84802 4.84864 2.84717 7.31644 2.84708C9.78432 2.84708 11.7847 4.84796 11.7847 7.31584C11.7847 9.78372 9.7845 11.7837 7.31662 11.7837C4.84874 11.7837 2.84786 9.78372 2.84786 7.31584Z" fill="white"/>
</svg>
