<svg width="38" height="32" viewBox="0 0 38 32" fill="none" xmlns="http://www.w3.org/2000/svg">
<path d="M35.6667 12H27.6834L20.3834 1.0667C20.0667 0.600033 19.5334 0.366699 19 0.366699C18.4667 0.366699 17.9334 0.600033 17.6167 1.08337L10.3167 12H2.33335C1.41669 12 0.666687 12.75 0.666687 13.6667C0.666687 13.8167 0.683354 13.9667 0.733354 14.1167L4.96669 29.5667C5.35002 30.9667 6.63335 32 8.16669 32H29.8334C31.3667 32 32.65 30.9667 33.05 29.5667L37.2834 14.1167L37.3334 13.6667C37.3334 12.75 36.5834 12 35.6667 12ZM19 5.00003L23.6667 12H14.3334L19 5.00003ZM29.8334 28.6667L8.18335 28.6834L4.51669 15.3334H33.5L29.8334 28.6667ZM19 18.6667C17.1667 18.6667 15.6667 20.1667 15.6667 22C15.6667 23.8334 17.1667 25.3334 19 25.3334C20.8334 25.3334 22.3334 23.8334 22.3334 22C22.3334 20.1667 20.8334 18.6667 19 18.6667Z" fill="white"/>
</svg>
