<svg width="19" height="13" viewBox="0 0 19 13" fill="none" xmlns="http://www.w3.org/2000/svg">
    <path fill-rule="evenodd" clip-rule="evenodd" d="M17.917 2.28678C17.7169 1.5179 17.1271 0.91243 16.3783 0.706944C15.0212 0.333496 9.57895 0.333496 9.57895 0.333496C9.57895 0.333496 4.1367 0.333496 2.77952 0.706944C2.03067 0.91243 1.44093 1.5179 1.24079 2.28678C0.877197 3.6803 0.877197 6.58788 0.877197 6.58788C0.877197 6.58788 0.877197 9.49537 1.24079 10.889C1.44093 11.6579 2.03067 12.2633 2.77952 12.4689C4.1367 12.8423 9.57895 12.8423 9.57895 12.8423C9.57895 12.8423 15.0212 12.8423 16.3783 12.4689C17.1271 12.2633 17.7169 11.6579 17.917 10.889C18.2807 9.49537 18.2807 6.58788 18.2807 6.58788C18.2807 6.58788 18.2807 3.6803 17.917 2.28678Z" fill="white" />
    <path fill-rule="evenodd" clip-rule="evenodd" d="M7.94739 9.57898V4.14038L12.2983 6.85978L7.94739 9.57898Z" fill="#2C2C2C" />
</svg>