<svg width="21" height="21" viewBox="0 0 21 21" fill="none" xmlns="http://www.w3.org/2000/svg">
<path d="M10.5 20.9166C4.76041 20.9166 0.0833282 16.2396 0.0833282 10.5C0.0833282 4.7604 4.76041 0.083313 10.5 0.083313C16.2396 0.083313 20.9167 4.29165 20.9167 9.45831C20.9167 12.9062 18.1146 15.7083 14.6667 15.7083H12.8229C12.5312 15.7083 12.3021 15.9375 12.3021 16.2291C12.3021 16.3541 12.3542 16.4687 12.4375 16.5729C12.8646 17.0625 13.1042 17.6771 13.1042 18.3125C13.1042 19.75 11.9375 20.9166 10.5 20.9166ZM10.5 2.16665C5.90625 2.16665 2.16666 5.90623 2.16666 10.5C2.16666 15.0937 5.90625 18.8333 10.5 18.8333C10.7917 18.8333 11.0208 18.6041 11.0208 18.3125C11.0208 18.1458 10.9375 18.0208 10.875 17.9479C10.4479 17.4687 10.2187 16.8541 10.2187 16.2291C10.2187 14.7916 11.3854 13.625 12.8229 13.625H14.6667C16.9687 13.625 18.8333 11.7604 18.8333 9.45831C18.8333 5.43748 15.0937 2.16665 10.5 2.16665Z" fill="black"/>
</svg>
