<svg width="21" height="21" fill="none" xmlns="http://www.w3.org/2000/svg"><path d="M10.5 20.917C4.76 20.917.083 16.24.083 10.5S4.76.083 10.5.083s10.417 4.209 10.417 9.375a6.255 6.255 0 01-6.25 6.25h-1.844a.515.515 0 00-.386.865 2.65 2.65 0 01.667 1.74 2.605 2.605 0 01-2.604 2.604zm0-18.75c-4.594 0-8.333 3.74-8.333 8.333 0 4.594 3.74 8.333 8.333 8.333.292 0 .52-.229.52-.52a.563.563 0 00-.145-.365 2.586 2.586 0 01-.656-1.719 2.605 2.605 0 012.604-2.604h1.844a4.166 4.166 0 004.166-4.167c0-4.02-3.74-7.291-8.333-7.291z" fill="#000"/></svg>