<svg width="38" height="32" fill="none" xmlns="http://www.w3.org/2000/svg"><path d="M35.667 12h-7.984l-7.3-10.933c-.316-.467-.85-.7-1.383-.7s-1.067.233-1.383.716L10.317 12H2.333c-.916 0-1.666.75-1.666 1.667 0 .15.016.3.066.45l4.234 15.45A3.315 3.315 0 008.167 32h21.666a3.35 3.35 0 003.217-2.433l4.233-15.45.05-.45c0-.917-.75-1.667-1.666-1.667zM19 5l4.667 7h-9.334L19 5zm10.833 23.667l-21.65.016-3.666-13.35H33.5l-3.667 13.334zM19 18.667A3.343 3.343 0 0015.667 22c0 1.833 1.5 3.333 3.333 3.333 1.833 0 3.333-1.5 3.333-3.333 0-1.833-1.5-3.333-3.333-3.333z" fill="#fff"/></svg>