<svg width="19" height="13" fill="none" xmlns="http://www.w3.org/2000/svg"><path fill-rule="evenodd" clip-rule="evenodd" d="M17.917 2.287a2.21 2.21 0 00-1.539-1.58C15.021.333 9.58.333 9.58.333s-5.442 0-6.8.374a2.21 2.21 0 00-1.538 1.58c-.364 1.393-.364 4.3-.364 4.3s0 2.908.364 4.302c.2.769.79 1.374 1.539 1.58 1.357.373 6.799.373 6.799.373s5.442 0 6.8-.373a2.21 2.21 0 001.538-1.58c.364-1.394.364-4.301.364-4.301s0-2.908-.364-4.301z" fill="#fff"/><path fill-rule="evenodd" clip-rule="evenodd" d="M7.947 9.579V4.14l4.351 2.72-4.35 2.719z" fill="#2C2C2C"/></svg>