<svg width="23" height="17" fill="none" xmlns="http://www.w3.org/2000/svg"><path d="M19.833 4.333h-3.125V.167H2.125A2.09 2.09 0 00.042 2.25v11.458h2.083a3.12 3.12 0 003.125 3.125 3.12 3.12 0 003.125-3.125h6.25a3.12 3.12 0 003.125 3.125 3.12 3.12 0 003.125-3.125h2.083V8.5l-3.125-4.167zm-.52 1.563L21.354 8.5h-4.646V5.896h2.605zM5.25 14.75a1.045 1.045 0 01-1.042-1.042c0-.573.47-1.041 1.042-1.041.573 0 1.042.468 1.042 1.041s-.47 1.042-1.042 1.042zm2.312-3.125a3.093 3.093 0 00-2.312-1.042c-.927 0-1.74.407-2.313 1.042h-.812V2.25h12.5v9.375H7.562zM17.75 14.75a1.045 1.045 0 01-1.042-1.042c0-.573.47-1.041 1.042-1.041.573 0 1.042.468 1.042 1.041s-.47 1.042-1.042 1.042z" fill="#000"/></svg>